<?xml version="1.0" standalone="no"?>
<!DOCTYPE svg PUBLIC "-//W3C//DTD SVG 20010904//EN"
 "http://www.w3.org/TR/2001/REC-SVG-20010904/DTD/svg10.dtd">
<svg version="1.0" xmlns="http://www.w3.org/2000/svg"
 width="2370.000000pt" height="3113.000000pt" viewBox="0 0 2370.000000 3113.000000"
 preserveAspectRatio="xMidYMid meet">
<metadata>
Created by potrace 1.15, written by Peter Selinger 2001-2017
</metadata>
<g transform="translate(0.000000,3113.000000) scale(0.100000,-0.100000)"
fill="#000000" stroke="none">
<path d="M8793 24888 l-3052 -6243 -2870 -3 -2871 -2 0 -3075 0 -3075 2871 -2
2871 -3 3051 -6243 c1678 -3433 3055 -6241 3059 -6240 5 2 1381 2812 3060
6246 l3051 6242 2868 0 2869 0 0 3075 0 3075 -2868 0 -2868 0 -3052 6242
c-1678 3434 -3055 6244 -3059 6245 -5 2 -1382 -2806 -3060 -6239z m4381 -1238
l1253 -2565 -1288 -3 c-709 -1 -1868 -1 -2577 0 l-1287 3 1087 2225 c598 1224
1178 2410 1289 2635 l201 410 34 -70 c19 -38 599 -1224 1288 -2635z m2293
-4692 c84 -171 151 -313 150 -315 -2 -2 -1698 -2 -3769 -1 l-3766 3 152 312
151 312 3465 1 3465 0 152 -312z m7433 -3393 l0 -2365 -11050 0 -11050 0 0
2365 0 2365 11050 0 11050 0 0 -2365z m-7293 -3102 c-7 -16 -76 -157 -153
-315 l-139 -288 -3462 0 -3463 0 -51 103 c-29 56 -98 198 -155 315 l-103 212
3770 0 3770 0 -14 -27z m-1272 -2605 c-1381 -2831 -2481 -5075 -2487 -5070 -9
9 -2568 5245 -2568 5255 0 4 1158 7 2574 7 l2575 0 -94 -192z"/>
<path d="M2695 16349 c-246 -492 -609 -1215 -807 -1606 l-360 -713 237 0 236
0 209 425 209 425 724 0 723 0 207 -422 206 -423 239 -3 240 -2 -701 1397
c-385 769 -749 1492 -808 1607 l-107 209 -447 -894z m588 -244 c129 -290 264
-580 367 -786 l60 -119 -565 0 c-311 0 -565 2 -565 5 0 2 68 145 151 317 160
330 409 872 410 891 0 7 4 3 9 -8 5 -11 65 -146 133 -300z"/>
<path d="M15482 15978 c-335 -667 -698 -1390 -806 -1606 l-196 -392 237 2 236
3 206 422 206 423 726 0 725 0 207 -422 206 -423 236 -3 c129 -1 235 1 235 6
0 8 -1596 3191 -1604 3199 -2 2 -278 -542 -614 -1209z m678 242 c100 -233 253
-566 380 -827 l118 -243 -568 0 -568 0 134 275 c117 239 293 617 404 867 19
42 35 76 36 75 1 -1 29 -67 64 -147z"/>
<path d="M18931 17098 c-94 -307 -953 -3063 -958 -3074 -4 -12 31 -14 239 -14
l245 0 294 1020 c161 561 296 1016 300 1012 3 -4 233 -487 510 -1075 277 -587
507 -1066 512 -1064 5 1 224 459 488 1017 263 558 491 1041 507 1074 l28 58
294 -1021 295 -1021 242 0 c134 0 243 1 243 3 0 17 -980 3142 -985 3142 -4 0
-255 -510 -558 -1132 -302 -623 -553 -1133 -556 -1133 -3 0 -253 511 -556
1135 -302 624 -553 1135 -557 1135 -4 0 -16 -28 -27 -62z"/>
<path d="M11330 15585 l0 -1565 240 0 240 0 0 735 0 735 855 0 855 0 0 -735 0
-735 235 0 235 0 0 1565 0 1565 -235 0 -235 0 0 -600 0 -600 -855 0 -855 0 0
600 0 600 -240 0 -240 0 0 -1565z"/>
<path d="M5420 15591 l0 -1531 195 0 195 0 0 630 0 630 89 0 90 0 496 -630
496 -630 256 0 c202 0 254 3 250 13 -2 7 -217 300 -476 652 l-471 640 52 7
c77 10 220 54 303 92 285 132 450 380 471 709 28 441 -193 761 -608 881 -183
53 -253 58 -815 63 l-523 5 0 -1531z m1150 1155 c109 -25 211 -76 279 -141
100 -96 141 -201 141 -370 0 -320 -198 -512 -575 -555 -49 -5 -206 -10 -347
-10 l-258 0 0 551 0 551 343 -5 c270 -4 358 -8 417 -21z"/>
<path d="M8140 15590 l0 -1530 240 0 240 0 2 705 3 704 739 -704 739 -705 319
0 c176 0 318 4 316 8 -1 4 -369 368 -817 807 l-813 800 53 47 c30 26 399 348
821 715 421 368 767 671 767 676 1 4 -169 7 -376 7 l-378 0 -685 -607 -685
-606 -3 606 -2 607 -240 0 -240 0 0 -1530z"/>
</g>
</svg>
